<?xml version="1.0" standalone="no"?><!-- Generator: Gravit.io --><svg xmlns="http://www.w3.org/2000/svg" xmlns:xlink="http://www.w3.org/1999/xlink" style="isolation:isolate" viewBox="0 0 500 500" width="500" height="500"><defs><clipPath id="_clipPath_C0FYBCGwDslQZ5EAdgSKpj34uXPTpAqG"><rect width="500" height="500"/></clipPath></defs><g clip-path="url(#_clipPath_C0FYBCGwDslQZ5EAdgSKpj34uXPTpAqG)"><g><rect x="59.516" y="53.047" width="241.122" height="241.122" transform="matrix(1,0,0,1,0,0)" fill="rgb(255,255,255)"/><path d=" M 290.591 63.094 L 290.591 284.122 L 69.563 284.122 L 69.563 63.094 L 290.591 63.094 Z  M 310.685 43 L 49.469 43 L 49.469 304.216 L 310.685 304.216 L 310.685 43 Z " fill="rgb(120,139,156)"/><rect x="69.563" y="163.561" width="221.029" height="20.094" transform="matrix(0,1,-1,0,353.685,-6.469)" fill="rgb(197,212,222)"/><rect x="129.843" y="163.561" width="221.029" height="20.094" transform="matrix(0,1,-1,0,413.965,-66.75)" fill="rgb(197,212,222)"/><rect x="69.563" y="223.842" width="221.029" height="20.094" transform="matrix(1,0,0,1,0,0)" fill="rgb(197,212,222)"/><rect x="69.563" y="163.561" width="221.029" height="20.094" transform="matrix(1,0,0,1,0,0)" fill="rgb(197,212,222)"/><rect x="59.516" y="53.047" width="60.281" height="60.281" transform="matrix(1,0,0,1,0,0)" fill="rgb(194,232,255)"/><path d=" M 109.75 63.094 L 109.75 103.281 L 69.563 103.281 L 69.563 63.094 L 109.75 63.094 Z  M 129.843 43 L 49.469 43 L 49.469 123.374 L 129.843 123.374 L 129.843 43 Z " fill="rgb(116,150,196)"/><rect x="59.516" y="113.327" width="60.281" height="60.281" transform="matrix(1,0,0,1,0,0)" fill="rgb(194,232,255)"/><path d=" M 109.75 123.374 L 109.75 163.561 L 69.563 163.561 L 69.563 123.374 L 109.75 123.374 Z  M 129.843 103.281 L 49.469 103.281 L 49.469 183.655 L 129.843 183.655 L 129.843 103.281 Z " fill="rgb(116,150,196)"/><rect x="59.516" y="173.608" width="60.281" height="60.281" transform="matrix(1,0,0,1,0,0)" fill="rgb(194,232,255)"/><path d=" M 109.75 183.655 L 109.75 223.842 L 69.563 223.842 L 69.563 183.655 L 109.75 183.655 Z  M 129.843 163.561 L 49.469 163.561 L 49.469 243.935 L 129.843 243.935 L 129.843 163.561 Z " fill="rgb(116,150,196)"/><rect x="59.516" y="233.888" width="60.281" height="60.281" transform="matrix(1,0,0,1,0,0)" fill="rgb(194,232,255)"/><path d=" M 109.75 243.935 L 109.75 284.122 L 69.563 284.122 L 69.563 243.935 L 109.75 243.935 Z  M 129.843 223.842 L 49.469 223.842 L 49.469 304.216 L 129.843 304.216 L 129.843 223.842 Z " fill="rgb(116,150,196)"/><rect x="119.796" y="53.047" width="60.281" height="60.281" transform="matrix(1,0,0,1,0,0)" fill="rgb(194,232,255)"/><path d=" M 170.03 63.094 L 170.03 103.281 L 129.843 103.281 L 129.843 63.094 L 170.03 63.094 Z  M 190.124 43 L 109.75 43 L 109.75 123.374 L 190.124 123.374 L 190.124 43 Z " fill="rgb(116,150,196)"/><rect x="180.077" y="53.047" width="60.281" height="60.281" transform="matrix(1,0,0,1,0,0)" fill="rgb(194,232,255)"/><path d=" M 230.311 63.094 L 230.311 103.281 L 190.124 103.281 L 190.124 63.094 L 230.311 63.094 Z  M 250.404 43 L 170.03 43 L 170.03 123.374 L 250.404 123.374 L 250.404 43 Z " fill="rgb(116,150,196)"/><rect x="240.358" y="53.047" width="60.281" height="60.281" transform="matrix(1,0,0,1,0,0)" fill="rgb(194,232,255)"/><path d=" M 290.591 63.094 L 290.591 103.281 L 250.404 103.281 L 250.404 63.094 L 290.591 63.094 Z  M 310.685 43 L 230.311 43 L 230.311 123.374 L 310.685 123.374 L 310.685 43 Z " fill="rgb(116,150,196)"/></g><g><path d=" M 173.644 358.019 L 173.644 225.402 L 314.299 151.056 L 454.953 225.402 L 454.953 362.038 L 314.299 448.44 L 173.644 358.019 Z " fill="rgb(186,224,189)"/><path d=" M 314.299 161.103 L 444.906 231.43 L 444.906 368.066 L 314.299 438.393 L 183.691 368.066 L 183.691 231.43 L 314.299 161.103 Z  M 314.299 139 L 163.597 219.374 L 163.597 366.057 L 314.299 460.496 L 465 372.085 L 465 219.374 L 314.299 139 Z " fill="rgb(94,156,118)"/><path d=" M 173.644 366.057 L 173.644 235.449 L 314.299 311.804 L 328.364 438.393 L 314.299 448.44 L 173.644 366.057 Z " fill="rgb(114,178,137)"/><path d=" M 314.299 460.496 L 163.597 372.085 L 163.597 219.374 L 324.345 305.776 L 338.411 442.412 L 314.299 460.496 Z  M 183.691 360.029 L 314.299 436.384 L 318.317 434.375 L 304.252 317.832 L 183.691 251.524 L 183.691 360.029 Z " fill="rgb(94,156,118)"/><path d=" M 314.299 299.748 L 304.252 299.748 L 304.252 454.468 L 314.299 460.496 L 465 370.075 L 465 219.374 L 314.299 299.748 Z " fill="rgb(94,156,118)"/><ellipse vector-effect="non-scaling-stroke" cx="314.29864968049407" cy="229.4208101917034" rx="30.140270063901255" ry="16.07481070074732" fill="rgb(255,255,255)"/><path d=" M 185.7 335.916 C 183.691 337.926 183.691 343.954 185.7 349.982 C 189.719 356.01 195.747 360.029 199.766 360.029 C 203.784 358.019 203.784 349.982 199.766 343.954 C 197.756 337.926 189.719 333.907 185.7 335.916 Z  M 266.074 319.842 C 264.065 321.851 264.065 329.888 266.074 335.916 C 270.093 341.944 276.121 345.963 280.14 345.963 C 284.158 341.944 284.158 335.916 282.149 329.888 C 278.13 321.851 270.093 317.832 266.074 319.842 Z  M 362.523 319.842 C 366.542 321.851 366.542 329.888 362.523 335.916 C 358.504 341.944 352.476 345.963 348.458 345.963 C 344.439 341.944 344.439 335.916 346.448 329.888 C 350.467 321.851 358.504 317.832 362.523 319.842 Z  M 422.804 335.916 C 426.822 337.926 426.822 345.963 422.804 351.991 C 418.785 358.019 412.757 362.038 408.738 360.029 C 404.719 358.019 404.719 349.982 408.738 343.954 C 410.748 337.926 418.785 333.907 422.804 335.916 Z  M 225.887 327.879 C 223.878 329.888 223.878 335.916 225.887 343.954 C 229.906 349.982 235.934 354.001 239.953 354.001 C 243.971 351.991 243.971 343.954 239.953 337.926 C 237.943 329.888 229.906 325.87 225.887 327.879 Z " fill="rgb(255,255,255)"/></g></g></svg>
